HIERARCHY
ROOT Hips
{
  OFFSET 1.44925e-005 102.336 -0.101585
  CHANNELS 6 Xposition Yposition Zposition Zrotation Xrotation Yrotation
  JOINT LeftUpLeg
  {
    OFFSET 8.9458 -8.66707 0.101652
    CHANNELS 3 Zrotation Xrotation Yrotation
    JOINT LeftLeg
    {
      OFFSET 0 -44.4227 1.3727
      CHANNELS 3 Zrotation Xrotation Yrotation
      JOINT LeftFoot
      {
        OFFSET -0.253549 -42.0924 -1.46059
        CHANNELS 3 Zrotation Xrotation Yrotation
        JOINT LeftToes
        {
          OFFSET -0.04 -4.41509 8.4991
          CHANNELS 3 Zrotation Xrotation Yrotation
          End Site
          {
            OFFSET 0.08 -0.047448 9.77979
          }
        }
      }
    }
  }
  JOINT Spine
  {
    OFFSET 0 11.8905 0
    CHANNELS 3 Zrotation Xrotation Yrotation
    JOINT Spine1
    {
      OFFSET 0 25.6574 0.127663
      CHANNELS 3 Zrotation Xrotation Yrotation
      JOINT RightShoulder
      {
        OFFSET -8.99 -0.362252 -0.22
        CHANNELS 3 Zrotation Xrotation Yrotation
        JOINT RightArm
        {
          OFFSET -10.2827 -0.00338 0.322123
          CHANNELS 3 Zrotation Xrotation Yrotation
          JOINT RightForeArm
          {
            OFFSET -26.364 0.099144 -1.42434
            CHANNELS 3 Zrotation Xrotation Yrotation
            JOINT RightHand
            {
              OFFSET -22.0324 0.085362 1.02216
              CHANNELS 3 Zrotation Xrotation Yrotation
              End Site
              {
                OFFSET -13.3284 -0.6 1.50291
              }
            }
          }
        }
      }
      JOINT LeftShoulder1
      {
        OFFSET 8.99 -0.362252 -0.22
        CHANNELS 3 Zrotation Xrotation Yrotation
        JOINT LeftArm
        {
          OFFSET 10.2827 -0.00337999 0.322123
          CHANNELS 3 Zrotation Xrotation Yrotation
          JOINT LeftForeArm
          {
            OFFSET 26.2597 0.099144 -1.42434
            CHANNELS 3 Zrotation Xrotation Yrotation
            JOINT LeftHand
            {
              OFFSET 22.0902 0.085362 1.02216
              CHANNELS 3 Zrotation Xrotation Yrotation
              End Site
              {
                OFFSET 13.419 -0.6 1.50291
              }
            }
          }
        }
      }
      JOINT Head
      {
        OFFSET 0 8.73416 0.011341
        CHANNELS 3 Zrotation Xrotation Yrotation
        End Site
        {
          OFFSET -0.29 12.7742 2.51395
        }
      }
    }
  }
  JOINT RightUpLeg
  {
    OFFSET -8.9458 -8.66707 0.101652
    CHANNELS 3 Zrotation Xrotation Yrotation
    JOINT RightLeg
    {
      OFFSET 0 -44.4227 1.3727
      CHANNELS 3 Zrotation Xrotation Yrotation
      JOINT RightFoot
      {
        OFFSET 0.253549 -42.0924 -1.46059
        CHANNELS 3 Zrotation Xrotation Yrotation
        JOINT RightToes
        {
          OFFSET 0.04 -4.41509 8.4991
          CHANNELS 3 Zrotation Xrotation Yrotation
          End Site
          {
            OFFSET -0.08 -0.137448 9.77979
          }
        }
      }
    }
  }
}
MOTION
Frames:	16
Frame Time:	0.0333333
96.1716 98.7532 0.459028 -3.80483 -3.38305 -95.8566 -3.11493 -18.4311 2.43425 1.02621 23.512 21.9535 -0.437351 -5.50316 0.026281 -1.36374e-009 8.75185e-006 -1.47182e-008 -0.787435 15.0526 0.0590445 -4.1444 -2.71385 0.699104 34.1948 1.7593 0.329986 44.4991 -3.28897 17.5468 2.69631 20.853 25.1777 -8.3656 9.57265 -0.476056 -45.3797 3.59602 -3.39238 -19.8154 -27.101 -1.60355 -13.6615 46.6732 1.19019 5.82328 9.61819 -0.917488 -1.75526 -16.5672 2.02933 -6.56933 15.9123 -10.1807 -0.372318 13.0821 -12.7622 12.6201 -25.5082 1.76032 0.0462048 0.000530889 0.662642 
98.4222 98.6317 0.158766 -3.45381 -1.54101 -95.488 -0.804995 -20.1981 2.61281 1.10488 23.6161 21.5339 -0.341806 -4.11077 0.0197959 -1.36374e-009 8.75185e-006 -1.47182e-008 2.4107 15.3721 -0.809992 -4.27442 -2.31225 0.204771 34.1914 1.75971 0.326881 44.1584 -2.38338 18.7016 2.25629 21.6852 26.0742 -8.24434 9.5475 0.00395628 -45.9863 3.64178 -3.3909 -19.7731 -27.0713 -2.292 -14.9804 47.7889 3.36383 5.82328 9.61819 -0.917488 -1.90648 -17.8063 2.4754 -4.2317 14.7928 -9.33542 0.440228 12.5446 -14.201 11.6689 -26.1318 1.66585 0.0462048 0.000530889 0.662642 
100.486 98.6936 -0.00425237 -3.39243 0.726061 -95.2067 1.95877 -21.1216 2.84275 1.08833 23.0035 21.2797 -0.0204751 -2.54254 0.000127602 -1.36374e-009 8.75185e-006 -1.47182e-008 5.79396 15.8497 -1.42911 -4.14914 -2.00757 -0.0647405 34.0817 1.76362 0.347512 43.2777 -1.28071 19.0044 2.43162 21.3592 25.7131 -8.53052 9.51813 0.253813 -46.393 3.67496 -3.39438 -20.7221 -27.1355 -2.36459 -14.9219 48.4803 3.3844 5.82328 9.61819 -0.917488 -2.04733 -18.4254 2.88765 -1.80343 13.1555 -8.27987 1.17865 13.687 -14.9593 11.6737 -25.9976 1.65213 0.0462048 0.000530889 0.662642 
102.303 98.8865 -0.273014 -3.74802 2.32284 -95.4766 4.03509 -20.6884 3.27678 0.987823 20.9774 21.2883 0.428547 -0.565161 -0.0387142 -1.36374e-009 8.75185e-006 -1.47182e-008 6.91941 16.478 -1.37087 -3.04379 -1.78239 -0.0383939 34.0108 1.77426 0.380894 41.8914 0.485944 18.5905 3.25925 19.6645 24.1281 -8.6594 9.51566 0.194645 -46.106 3.6461 -3.38158 -22.6614 -27.4661 -1.60324 -13.4617 48.4425 1.43827 5.82328 9.61819 -0.917488 -1.67932 -18.1896 3.42336 -0.0975005 11.7399 -7.28071 1.5242 15.0876 -15.6407 10.9185 -25.5205 1.47975 0.0462048 0.000530889 0.662642 
103.777 99.0928 -0.705249 -4.447 2.80706 -95.8842 4.9814 -19.2147 3.44305 0.814991 17.968 21.5913 0.609756 1.60656 -0.0740398 -1.36374e-009 8.75185e-006 -1.47182e-008 5.75774 16.8993 -0.983843 -1.21562 -1.42292 -0.0632122 34.3467 1.78587 0.377055 40.461 2.02222 17.942 4.25146 18.3819 21.3727 -8.40723 9.53575 0.0720402 -45.2656 3.56537 -3.35034 -24.5385 -27.5277 -0.0667126 -11.2084 47.3021 -1.88934 5.82328 9.61819 -0.917488 -0.731364 -17.2739 4.10583 0.774217 11.2209 -6.60335 1.45864 15.6826 -16.3181 9.85259 -25.1431 1.27291 0.0462048 0.000530889 0.662642 
104.902 99.2365 -1.11118 -5.12355 2.97675 -95.9452 5.44544 -17.6917 3.37568 0.66882 15.0645 21.7988 0.602327 3.58079 -0.0962331 -1.36374e-009 8.75185e-006 -1.47182e-008 4.57754 16.8926 -0.892743 0.155676 -1.08048 -0.341275 35.0453 1.79058 0.320041 40.6083 -1.65616 17.1389 5.39632 22.7663 17.0697 -8.31608 9.53686 0.120957 -44.7412 3.51786 -3.33534 -25.1278 -25.9235 1.72351 -9.17203 44.8255 -5.50676 5.82328 9.61819 -0.917488 0.270872 -15.9724 4.67845 1.31293 11.2741 -6.27112 1.40082 15.675 -16.7648 9.44169 -25.0615 1.20096 0.0462048 0.000530889 0.662642 
105.789 99.3081 -1.3491 -5.51604 3.37086 -95.8541 6.03999 -16.7362 3.52908 0.584167 12.9223 21.6692 0.782014 5.15465 -0.134095 -1.36374e-009 8.75185e-006 -1.47182e-008 4.76564 16.6458 -1.14504 0.340028 -0.983488 -0.615954 35.6067 1.79219 0.259131 42.7486 -11.9085 16.1986 7.37737 32.885 11.065 -8.73145 9.51587 0.142086 -45.0164 3.55223 -3.36139 -24.507 -22.7574 2.9738 -7.94063 42.1674 -8.21981 5.82328 9.61819 -0.917488 0.815119 -14.6357 4.81502 1.90718 11.1254 -5.98256 1.50776 15.8575 -17.1163 9.53391 -25.129 1.22121 0.0462048 0.000530889 0.662642 
106.519 99.3231 -1.48323 -5.81886 3.80266 -95.8656 6.64957 -16.0749 3.85614 0.501589 11.4142 21.4648 1.07395 6.3381 -0.184362 -1.36374e-009 8.75185e-006 -1.47182e-008 5.63663 16.3829 -1.35893 -0.236625 -0.925019 -0.642031 35.7971 1.79262 0.233426 44.84 -22.0339 15.0832 9.99902 40.7331 4.1923 -9.15514 9.52663 -0.298505 -45.5809 3.61858 -3.40607 -23.6904 -20.3782 3.26418 -7.42947 41.278 -9.42819 5.82328 9.61819 -0.917488 0.880814 -13.6651 4.46084 2.51261 10.7192 -5.58537 1.51165 16.4811 -17.6258 9.51209 -25.2082 1.22426 0.0462048 0.000530889 0.662642 
107.072 99.2991 -1.62112 -6.32943 4.00941 -95.7506 6.95417 -15.3223 4.06189 0.423193 10.3116 21.2103 1.10193 7.16312 -0.200556 -1.36374e-009 8.75185e-006 -1.47182e-008 6.20056 16.1541 -1.44279 -0.792952 -0.617141 -0.568346 35.9007 1.79209 0.227727 45.1462 -26.7505 13.3174 11.6333 42.3714 -1.43946 -8.95266 9.60069 -1.25659 -45.7903 3.64561 -3.42678 -23.3818 -20.2736 2.76422 -7.4355 42.2961 -9.29597 5.82328 9.61819 -0.917488 0.726476 -13.2067 3.88637 2.9771 10.6133 -5.30162 1.34397 17.1146 -18.2533 9.29447 -25.2919 1.1962 0.0462048 0.000530889 0.662642 
107.43 99.2608 -1.75181 -6.98739 4.10524 -95.2718 7.01134 -14.5827 4.10873 0.38962 9.61273 20.717 0.934709 7.67928 -0.186459 -1.36374e-009 8.75185e-006 -1.47182e-008 6.49556 15.9661 -1.57841 -1.08219 -0.270079 -0.617172 36.1091 1.7908 0.218931 44.2704 -29.1887 11.0734 12.8289 43.5769 -5.7496 -8.07354 9.6967 -2.31319 -45.7315 3.64139 -3.42738 -23.4261 -21.3669 2.02188 -7.69794 43.4598 -8.64482 5.82328 9.61819 -0.917488 0.521049 -13.0046 3.40724 3.30303 10.9678 -5.2548 1.29981 17.4263 -18.8588 9.13223 -25.3652 1.17593 0.0462048 0.000530889 0.662642 
107.637 99.2288 -1.82508 -7.50909 4.21885 -94.7161 7.04285 -14.0703 4.13949 0.371016 9.21044 20.1549 0.982305 8.01583 -0.197727 -1.36374e-009 8.75185e-006 -1.47182e-008 6.83869 15.8399 -1.75005 -1.26671 -0.2469 -0.7181 36.2309 1.78898 0.213379 42.7065 -30.3531 8.25589 13.9193 46.018 -8.5085 -6.90602 9.76518 -3.04012 -45.7796 3.65429 -3.4448 -23.3705 -21.9062 1.49811 -7.81135 43.4887 -8.42339 5.82328 9.61819 -0.917488 0.333562 -12.7857 3.12713 3.53388 11.3791 -5.36978 1.43923 17.5364 -19.2835 9.05864 -25.3959 1.16645 0.0462048 0.000530889 0.662642 
107.745 99.2111 -1.86135 -7.81998 4.26632 -94.449 7.08202 -13.6951 4.23451 0.278697 8.87104 19.8166 1.27549 8.26816 -0.241927 -1.36374e-009 8.75185e-006 -1.47182e-008 7.05967 15.7246 -1.79164 -1.43432 -0.437006 -0.709815 36.1519 1.78682 0.22142 40.9215 -30.2889 4.99126 14.4188 48.0317 -9.13416 -5.88461 9.79896 -3.35095 -45.8559 3.67617 -3.4751 -23.2943 -21.2914 1.24886 -7.44876 42.4859 -9.12061 5.82328 9.61819 -0.917488 0.251265 -12.6047 2.99093 3.64194 11.6057 -5.464 1.50271 17.6401 -19.5109 8.92962 -25.4162 1.14716 0.0462048 0.000530889 0.662642 
107.765 99.203 -1.90159 -8.09832 4.17561 -94.3738 7.05768 -13.287 4.36136 0.106436 8.5949 19.6161 1.49156 8.40656 -0.274461 -1.36374e-009 8.75185e-006 -1.47182e-008 6.96089 15.5651 -1.74793 -1.55227 -0.478067 -0.659782 36.0515 1.78455 0.232336 39.2847 -29.3967 1.85961 14.0269 48.1067 -7.80052 -5.30258 9.81206 -3.4325 -45.7056 3.66787 -3.48149 -23.4886 -19.707 1.13565 -6.5403 40.7958 -10.6974 5.82328 9.61819 -0.917488 0.325553 -12.6107 2.99469 3.62776 11.8411 -5.50036 1.40849 17.7263 -19.6121 8.68086 -25.4482 1.10931 0.0462048 0.000530889 0.662642 
107.705 99.1981 -1.92996 -8.46409 4.05824 -94.2098 6.96375 -12.8539 4.4448 -0.0307842 8.52305 19.3377 1.55538 8.41116 -0.283494 -1.36374e-009 8.75185e-006 -1.47182e-008 6.73139 15.4292 -1.81005 -1.60227 -0.339502 -0.740626 36.0075 1.78237 0.237377 38.0154 -28.288 -0.58887 13.2204 46.5216 -5.64251 -5.19729 9.81303 -3.41228 -45.4865 3.64197 -3.46456 -23.7936 -17.5146 1.10353 -5.37343 38.5752 -12.6885 5.82328 9.61819 -0.917488 0.473522 -12.7189 3.171 3.55881 12.2674 -5.6084 1.34622 17.7166 -19.6114 8.41126 -25.4207 1.06367 0.0462048 0.000530889 0.662642 
107.605 99.1995 -1.91223 -8.81877 3.9953 -93.9782 6.83369 -12.4831 4.45056 -0.069648 8.56886 19.0745 1.64914 8.36625 -0.295696 -1.36374e-009 8.75185e-006 -1.47182e-008 6.57 15.3922 -1.98479 -1.56863 -0.270868 -0.943801 35.8708 1.7805 0.243016 37.2535 -27.574 -2.13765 12.4559 44.7671 -3.67219 -5.25276 9.80554 -3.23181 -45.4975 3.64109 -3.46124 -23.9087 -15.3309 1.10864 -4.35022 36.3181 -14.4808 5.82328 9.61819 -0.917488 0.549688 -12.7484 3.392 3.47161 12.7526 -5.81337 1.39855 17.6199 -19.5453 8.29076 -25.293 1.03507 0.0462048 0.000530889 0.662642 
107.498 99.2134 -1.8579 -9.0065 3.92718 -93.8808 6.69741 -12.2272 4.43494 -0.109473 8.54103 19.0285 1.76703 8.33805 -0.311537 -1.36374e-009 8.75185e-006 -1.47182e-008 6.41686 15.3779 -2.10963 -1.46777 -0.372236 -1.1106 35.6619 1.77914 0.246612 36.955 -27.4684 -2.81054 11.7606 43.7311 -2.14591 -5.11622 9.798 -2.94721 -45.6134 3.6589 -3.4781 -23.9276 -13.7799 1.0138 -3.62081 34.6629 -15.7551 5.82328 9.61819 -0.917488 0.501377 -12.6834 3.42452 3.33921 13.0782 -5.973 1.44559 17.4826 -19.4871 8.33138 -25.1553 1.03178 0.0462048 0.000530889 0.662642 
